<svg xmlns="http://www.w3.org/2000/svg" version="1.1" xmlns:xlink="http://www.w3.org/1999/xlink" xmlns:svgjs="http://svgjs.dev/svgjs" width="1000" height="750" viewBox="0 0 1000 750"><rect width="1000" height="750" fill="#000000"></rect><g transform="matrix(0.834,0,0,0.834,82.4945463621574,201.587721803345)"><svg viewBox="0 0 396 165" data-background-color="#dedede" preserveAspectRatio="xMidYMid meet" height="416" width="1000" xmlns="http://www.w3.org/2000/svg" xmlns:xlink="http://www.w3.org/1999/xlink"><g id="tight-bounds" transform="matrix(1,0,0,1,0.24000043095247747,-0.028402559352301182)"><svg viewBox="0 0 395.52 165.05679829416843" height="165.05679829416843" width="395.52"><g><svg viewBox="0 0 681.8666595278048 284.55382201961794" height="165.05679829416843" width="395.52"><g transform="matrix(1,0,0,1,284.36905952780484,5.947318371101261)"><svg viewBox="0 0 397.4975999999999 272.6591852774154" height="272.6591852774154" width="397.4975999999999"><g><svg viewBox="0 0 397.4975999999999 272.6591852774154" height="272.6591852774154" width="397.4975999999999"><g><rect width="397.4975999999999" height="14.789337322021465" x="0" y="181.4180917884878" fill="#ffffff" opacity="1" stroke-width="0" stroke="transparent" fill-opacity="1" class="rect-o-0" data-fill-palette-color="primary" rx="1%" id="o-0" data-palette-color="#374151"></rect></g><g transform="matrix(1,0,0,1,0.9887999999999693,0)"><svg viewBox="0 0 395.52 163.9960975609756" height="163.9960975609756" width="395.52"><g transform="matrix(1,0,0,1,0,0)"><svg width="395.52" viewBox="4 -33.25 81.98999786376953 34" height="163.9960975609756" data-palette-color="#374151"><path d="M20.9-6.25L20.9-6.25Q20.9 0.75 12.45 0.75 4 0.75 4-6.25L4-6.25 4-10.5 7.5-10.5 7.5-6.05Q7.5-4.25 8.75-3.25 10-2.25 12.45-2.25 14.9-2.25 16.15-3.25 17.4-4.25 17.4-5.98 17.4-7.7 17.03-8.72 16.65-9.75 15.5-10.9L15.5-10.9 6.7-19.5Q5.15-21.05 4.58-22.53 4-24 4-26.25L4-26.25Q4-29.6 6.08-31.43 8.15-33.25 12.35-33.25L12.35-33.25Q20.4-33.25 20.4-26.25L20.4-26.25 20.4-22 16.9-22 16.9-26.45Q16.9-28.25 15.73-29.25 14.55-30.25 12.2-30.25 9.85-30.25 8.68-29.25 7.5-28.25 7.5-26.5 7.5-24.75 7.85-23.75 8.2-22.75 9.4-21.65L9.4-21.65 18.35-13.05Q19.8-11.45 20.35-9.98 20.9-8.5 20.9-6.25ZM33.4-15L33.4 0 29.9 0 29.9-32.5 33.4-32.5 33.4-18 43.25-18 43.25-32.5 46.75-32.5 46.75 0 43.25 0 43.25-15 33.4-15ZM60.5-5.5L60.5 0 56 0 56-5.5 60.5-5.5ZM77.74-11.6L77.74 0 74.24 0 74.24-11.65 65.99-32.5 69.69-32.5 75.99-15.75 82.29-32.5 85.99-32.5 77.74-11.6Z" opacity="1" transform="matrix(1,0,0,1,0,0)" fill="#ffffff" class="undefined-text-0" data-fill-palette-color="primary" id="text-0"></path></svg></g></svg></g><g transform="matrix(1,0,0,1,0,213.62942333802144)"><svg viewBox="0 0 232.209792 59.029761939393936" height="59.029761939393936" width="232.209792"><g transform="matrix(1,0,0,1,0,0)"><svg width="232.209792" viewBox="1.100000023841858 -40.15999984741211 217.50999450683594 55.29999923706055" height="59.029761939393936" data-palette-color="#374151"><path d="M1.1-33.62L1.1-34.3Q1.1-34.5 1.29-34.5L1.29-34.5 1.83-34.5 9.67-34.67Q11.08-34.72 12.74-34.72L12.74-34.72 15.8-34.72Q20.04-34.72 22.18-34.4 24.32-34.08 26.38-33.65 28.44-33.23 30.77-31.71 33.11-30.2 34.81-28.05L34.81-28.05Q38.43-23.46 38.43-18.14 38.43-12.82 35.64-8.59L35.64-8.59Q31.64-2.47 24.05-0.59L24.05-0.59Q21.63 0 19.09 0L19.09 0 1.29 0Q1.1 0 1.1-0.2L1.1-0.2 1.1-0.88Q1.1-1.07 1.29-1.07L1.29-1.07 1.83-1.07Q6.27-1.07 6.27-3.91L6.27-3.91 6.27-30.66Q6.27-32.03 5.22-32.73 4.17-33.42 2.86-33.42L2.86-33.42 1.29-33.42Q1.1-33.42 1.1-33.62L1.1-33.62ZM18.29-33.57L11.65-33.57Q11.04-33.57 11.04-32.91L11.04-32.91 11.04-3.05Q11.04-1.25 14.43-1.17L14.43-1.17Q15.43-1.15 16.53-1.15L16.53-1.15Q24.32-1.15 28.77-5.52 33.23-9.89 33.23-17.15 33.23-24.41 29.11-28.99 25-33.57 18.29-33.57L18.29-33.57ZM60.42-12.87L46.26-12.87Q45.85-12.87 45.85-11.08L45.85-11.08Q45.85-7.3 48.09-4.74 50.34-2.17 53.67-2.17 57-2.17 60.08-5.05L60.08-5.05Q60.13-5.1 60.2-5.1L60.2-5.1 60.32-5.1Q60.47-5.1 60.61-4.87 60.74-4.64 60.86-4.57L60.86-4.57Q58.03-1.12 54.2 0.2L54.2 0.2Q52.88 0.66 51.22 0.66 49.56 0.66 47.85-0.26 46.14-1.17 44.92-2.66L44.92-2.66Q42.33-5.76 42.33-10.39 42.33-15.01 45.15-18.82 47.97-22.63 52.9-22.63L52.9-22.63Q56.44-22.63 58.69-19.47 60.94-16.31 60.94-13.92L60.94-13.92Q60.94-12.87 60.42-12.87L60.42-12.87ZM46.53-15.5L46.53-15.21Q46.53-14.75 46.97-14.75L46.97-14.75 56.17-14.75Q56.81-14.75 56.81-15.5L56.81-15.5Q56.81-17.26 55.23-19.1 53.66-20.95 51.78-20.95L51.78-20.95Q49.95-20.95 48.45-19.29 46.95-17.63 46.53-15.5L46.53-15.5ZM78.85-21.97L88.11-21.97Q88.37-21.9 88.37-21.63 88.37-21.36 88.3-21.24 88.23-21.12 87.23-20.97 86.23-20.83 85.8-20.4 85.37-19.97 85.04-19.43 84.71-18.9 84.47-18.32 84.22-17.75 84-17.29L84-17.29 77.34-0.05Q77.05 0.66 76.8 0.66L76.8 0.66 74.87 0.66Q74.63 0.66 74.34-0.1L74.34-0.1 67.87-17.6Q66.96-20.07 64.77-20.78L64.77-20.78Q64.59-20.83 64.35-20.85L64.35-20.85Q63.33-20.95 63.33-21.46 63.33-21.97 63.91-21.97L63.91-21.97 74.78-21.97Q74.97-21.97 74.97-21.59 74.97-21.22 74.7-21.09L74.7-21.09Q74.26-20.92 73.14-20.95L73.14-20.95Q71.31-21 71.31-19.48L71.31-19.48 71.45-18.9 76.41-5.35Q76.9-4.1 77.39-5.42L77.39-5.42Q77.44-5.54 78.02-7.01L78.02-7.01Q81.32-15.43 81.72-16.75 82.12-18.07 82.12-18.73 82.12-19.38 81.42-20.1 80.71-20.83 79.51-20.83 78.32-20.83 78.32-21.56L78.32-21.56Q78.32-21.97 78.85-21.97L78.85-21.97ZM108.42-12.87L94.26-12.87Q93.84-12.87 93.84-11.08L93.84-11.08Q93.84-7.3 96.09-4.74 98.33-2.17 101.66-2.17 105-2.17 108.07-5.05L108.07-5.05Q108.12-5.1 108.2-5.1L108.2-5.1 108.32-5.1Q108.46-5.1 108.6-4.87 108.73-4.64 108.85-4.57L108.85-4.57Q106.02-1.12 102.19 0.2L102.19 0.2Q100.87 0.66 99.21 0.66 97.55 0.66 95.84-0.26 94.13-1.17 92.91-2.66L92.91-2.66Q90.32-5.76 90.32-10.39 90.32-15.01 93.14-18.82 95.96-22.63 100.9-22.63L100.9-22.63Q104.44-22.63 106.68-19.47 108.93-16.31 108.93-13.92L108.93-13.92Q108.93-12.87 108.42-12.87L108.42-12.87ZM94.52-15.5L94.52-15.21Q94.52-14.75 94.96-14.75L94.96-14.75 104.17-14.75Q104.8-14.75 104.8-15.5L104.8-15.5Q104.8-17.26 103.23-19.1 101.65-20.95 99.77-20.95L99.77-20.95Q97.94-20.95 96.44-19.29 94.94-17.63 94.52-15.5L94.52-15.5ZM122.04-0.93L122.04-0.93Q123.18-0.78 123.18-0.34L123.18-0.34Q123.18-0.05 122.94 0L122.94 0 112.05 0Q111.81-0.05 111.81-0.34L111.81-0.34Q111.81-0.78 112.95-0.93L112.95-0.93Q115.59-1.32 115.59-3.71L115.59-3.71 115.59-34.16Q115.59-35.18 114.47-35.57L114.47-35.57Q113.98-35.74 113.42-35.85 112.86-35.96 112.53-36.06 112.2-36.16 112.11-36.24 112.03-36.33 112.03-36.61 112.03-36.89 112.39-37.08L112.39-37.08 118.62-40.01Q118.91-40.16 118.98-40.16L118.98-40.16Q119.4-40.16 119.4-39.58L119.4-39.58 119.4-3.71Q119.4-1.32 122.04-0.93ZM125.87-10.97Q125.87-15.77 129.27-19.23 132.68-22.68 137.44-22.68 142.2-22.68 145.72-19.32 149.23-15.97 149.23-11.04 149.23-6.1 145.9-2.72 142.57 0.66 137.54 0.66 132.51 0.66 129.19-2.76 125.87-6.18 125.87-10.97ZM131.95-4.69L131.95-4.69Q134.34-0.66 138.46-0.66L138.46-0.66Q141.66-0.66 143.36-3.22 145.06-5.79 145.06-9.52 145.06-13.26 142.68-17.19 140.3-21.12 136.27-21.12L136.27-21.12Q133.31-21.12 131.62-18.57 129.92-16.02 129.92-12.1 129.92-8.18 131.95-4.69ZM171.15-2.56L171.15-2.56Q167.78 0.66 163.58 0.66L163.58 0.66Q162.07 0.66 159.46 0.1L159.46 0.1Q159.04 0.1 159.01 0.39 158.97 0.68 158.94 1L158.94 1 158.94 11.43Q158.94 13.26 161.07 13.87L161.07 13.87Q162 14.11 162.8 14.22 163.61 14.33 163.84 14.43 164.07 14.53 164.07 14.81 164.07 15.09 163.83 15.14L163.83 15.14 151.6 15.14Q151.35 15.09 151.35 14.79L151.35 14.79Q151.35 14.36 152.5 14.21L152.5 14.21Q155.14 13.82 155.14 11.43L155.14 11.43 155.14-17.85Q155.14-18.87 154.01-19.26L154.01-19.26Q153.53-19.43 152.96-19.54 152.4-19.65 152.07-19.75 151.74-19.85 151.66-19.93 151.57-20.02 151.57-20.3 151.57-20.58 151.94-20.78L151.94-20.78 158.16-23.75Q158.36-23.85 158.55-23.85L158.55-23.85Q158.94-23.85 158.94-23.27L158.94-23.27 158.94-20.17Q158.94-19.9 159.23-19.9 159.51-19.9 160.58-20.61L160.58-20.61Q163.68-22.61 167.03-22.61L167.03-22.61Q169.37-22.61 171.32-20.7L171.32-20.7Q173.89-18.21 174.74-13.77L174.74-13.77Q174.99-12.5 174.99-11.07 174.99-9.64 174.52-8.06L174.52-8.06Q173.59-4.91 171.15-2.56ZM164.17-20.07L164.17-20.07Q160.85-20.07 158.94-18.16L158.94-18.16 158.94-4.44Q158.94-3.22 159.36-2.86L159.36-2.86Q160.43-1.93 162.66-1.42L162.66-1.42Q167.05-0.42 169.49-3.52L169.49-3.52Q171.23-5.74 171.23-8.89L171.23-8.89Q171.23-15.01 168.47-18.07L168.47-18.07Q166.81-19.92 164.17-20.07ZM197.47-12.87L183.31-12.87Q182.89-12.87 182.89-11.08L182.89-11.08Q182.89-7.3 185.14-4.74 187.38-2.17 190.72-2.17 194.05-2.17 197.13-5.05L197.13-5.05Q197.17-5.1 197.25-5.1L197.25-5.1 197.37-5.1Q197.52-5.1 197.65-4.87 197.79-4.64 197.91-4.57L197.91-4.57Q195.08-1.12 191.24 0.2L191.24 0.2Q189.92 0.66 188.26 0.66 186.6 0.66 184.89-0.26 183.19-1.17 181.96-2.66L181.96-2.66Q179.38-5.76 179.38-10.39 179.38-15.01 182.2-18.82 185.02-22.63 189.95-22.63L189.95-22.63Q193.49-22.63 195.73-19.47 197.98-16.31 197.98-13.92L197.98-13.92Q197.98-12.87 197.47-12.87L197.47-12.87ZM183.58-15.5L183.58-15.21Q183.58-14.75 184.02-14.75L184.02-14.75 193.22-14.75Q193.85-14.75 193.85-15.5L193.85-15.5Q193.85-17.26 192.28-19.1 190.71-20.95 188.83-20.95L188.83-20.95Q186.99-20.95 185.49-19.29 183.99-17.63 183.58-15.5L183.58-15.5ZM216.92-17.5L216.92-17.5Q216.63-17.55 216.07-17.82L216.07-17.82Q214.04-18.75 212.9-18.75 211.75-18.75 210.49-17.32 209.23-15.89 209.23-14.75L209.23-14.75 209.23-3.71Q209.23-1.88 211.36-1.27L211.36-1.27Q212.28-1.03 213.09-0.92 213.9-0.81 214.13-0.71 214.36-0.61 214.36-0.33 214.36-0.05 214.12 0L214.12 0 201.88 0Q201.64-0.05 201.64-0.34L201.64-0.34Q201.64-0.78 202.79-0.93L202.79-0.93Q205.42-1.32 205.42-3.71L205.42-3.71 205.42-16.63Q205.42-17.65 204.3-18.04L204.3-18.04Q203.81-18.21 203.25-18.32 202.69-18.43 202.36-18.53 202.03-18.63 201.95-18.71 201.86-18.8 201.86-19.08 201.86-19.36 202.23-19.56L202.23-19.56 208.45-22.49Q208.74-22.63 208.82-22.63L208.82-22.63Q209.23-22.63 209.23-22.05L209.23-22.05 209.23-18.09Q209.23-17.8 209.38-17.8L209.38-17.8Q209.57-17.8 210.38-18.95L210.38-18.95Q212.7-22.19 214.21-22.19L214.21-22.19Q215.07-22.19 216.84-21.51 218.61-20.83 218.61-20.36L218.61-20.36Q218.61-19.8 218.05-18.65 217.48-17.5 216.92-17.5Z" opacity="1" transform="matrix(1,0,0,1,0,0)" fill="#ffffff" class="undefined-text-1" data-fill-palette-color="secondary" id="text-1"></path></svg></g></svg></g></svg></g></svg></g><g><svg viewBox="0 0 245.65351679999995 284.55382201961794" height="284.55382201961794" width="245.65351679999995"><g><svg xmlns="http://www.w3.org/2000/svg" xmlns:xlink="http://www.w3.org/1999/xlink" version="1.1" x="0" y="0" viewBox="9.63800048828125 3.246999979019165 80.7239990234375 93.50699615478516" enable-background="new 0 0 100 100" xml:space="preserve" height="284.55382201961794" width="245.65351679999995" class="icon-icon-0" data-fill-palette-color="accent" id="icon-0"><g fill="#374151" data-fill-palette-color="accent"><g fill="#374151" data-fill-palette-color="accent"><polygon points="36.703,11.011 9.638,26.636 9.638,38.757 36.703,23.131 63.767,38.757 63.767,26.636   " fill="#ffffff" data-fill-palette-color="accent"></polygon></g><g fill="#374151" data-fill-palette-color="accent"><polygon points="63.298,89.092 36.233,73.467 36.233,61.348 63.298,76.973 90.362,61.348 90.362,73.467   " fill="#ffffff" data-fill-palette-color="accent"></polygon></g><g fill="#374151" data-fill-palette-color="accent"><polygon points="9.638,42.012 36.703,26.386 47.198,32.446 20.134,48.072 20.134,79.324 9.638,73.264   " fill="#ffffff" data-fill-palette-color="accent"></polygon></g><g fill="#374151" data-fill-palette-color="accent"><polygon points="77.083,18.872 50.018,3.247 39.522,9.307 66.586,24.932 66.586,56.184 77.083,50.124   " fill="#ffffff" data-fill-palette-color="accent"></polygon></g><g fill="#374151" data-fill-palette-color="accent"><polygon points="23.01,81.127 23.011,49.876 33.507,43.816 33.507,75.068 60.571,90.693 50.075,96.754   " fill="#ffffff" data-fill-palette-color="accent"></polygon></g><g fill="#374151" data-fill-palette-color="accent"><polygon points="90.362,58.092 90.362,26.84 79.866,20.78 79.866,52.031 52.802,67.658 63.298,73.719   " fill="#ffffff" data-fill-palette-color="accent"></polygon></g></g></svg></g></svg></g></svg></g><defs></defs></svg><rect width="395.52" height="165.05679829416843" fill="none" stroke="none" visibility="hidden"></rect></g></svg></g></svg>